<?xml version="1.0" encoding="utf-8"?>
<!-- Generator: Adobe Illustrator 16.0.0, SVG Export Plug-In . SVG Version: 6.00 Build 0)  -->
<!DOCTYPE svg PUBLIC "-//W3C//DTD SVG 1.1//EN" "http://www.w3.org/Graphics/SVG/1.1/DTD/svg11.dtd">
<svg version="1.1" id="Capa_1" xmlns="http://www.w3.org/2000/svg" xmlns:xlink="http://www.w3.org/1999/xlink" x="0px" y="0px"
	 width="612px" height="792px" viewBox="0 0 612 792" enable-background="new 0 0 612 792" xml:space="preserve">
<path fill="#FFFFFF" d="M57.044,406.162c1.511,0.831,1.511,1.889,1.511,2.796v4.004c0,0.681-0.529,1.36-1.209,1.36
	c-0.378,0-0.68-0.303-0.907-0.303L6.195,387.651c-1.36-0.68-2.115-1.436-2.115-2.569v-4.004c0-0.907,0.378-2.04,1.586-2.569
	l50.773-26.52c0.302-0.151,0.68-0.302,1.058-0.302c0.529,0,1.058,0.378,1.058,1.209v3.854c0,0.831-0.378,2.04-1.587,2.569
	l-44.88,23.649L57.044,406.162z"/>
<path fill="#FFFFFF" d="M600.062,382.815l-45.031-23.422c-1.209-0.529-1.587-1.738-1.587-2.569v-3.853
	c0-0.831,0.529-1.209,1.058-1.209c0.378,0,0.681,0.151,1.059,0.302l50.772,26.52c1.209,0.529,1.587,1.586,1.587,2.569v4.004
	c0,1.058-0.68,1.889-2.115,2.569l-50.244,26.369c-0.378,0-0.529,0.302-0.907,0.302c-0.831,0-1.209-0.68-1.209-1.359v-4.005
	c0-0.906,0-2.04,1.436-2.796L600.062,382.815z"/>
<g>
	<path fill="#FFFFFF" d="M77.293,325.469h6.044c0.68,0,1.209,0.378,1.209,1.133v71.853c0,5.97,1.36,8.01,6.347,8.01h1.511
		c1.209,0,1.209,0.831,1.209,1.662v4.835c0,0.831-0.529,1.209-1.209,1.36c-1.36,0.151-2.645,0.151-3.324,0.151
		c-10.88,0-12.996-5.818-12.996-15.187v-72.534C76.16,326.073,76.462,325.469,77.293,325.469"/>
	<path fill="#FFFFFF" d="M180.956,414.171c-7.178,0-13.146-2.795-16.169-6.497l-0.302,0.15v4.533c0,0.831-0.302,1.134-1.209,1.134
		h-5.364c-0.831,0-1.209-0.151-1.209-0.982v-85.755c0-0.831,0.378-1.209,1.209-1.209h6.195c0.832,0,0.982,0.378,0.982,1.133v32.036
		l0.378,0.151c3.022-3.324,9.142-6.195,16.32-6.195c15.867,0,21.685,11.333,21.685,22.893v16.547
		C203.471,404.953,195.613,414.171,180.956,414.171 M195.084,375.335c0-8.462-4.307-15.64-14.884-15.64
		c-8.84,0-15.036,7.027-15.036,15.489v16.849c0,8.462,6.195,15.036,14.884,15.036c10.351,0,15.036-6.347,15.036-15.187V375.335z"/>
	<path fill="#FFFFFF" d="M236.036,414.322c-14.885,0-23.498-8.387-23.498-22.667v-16.698c0-13.525,8.538-22.516,23.347-22.516
		c14.658,0,23.347,8.462,23.347,22.516v16.546C259.307,406.011,250.467,414.322,236.036,414.322 M250.996,375.109
		c0-8.84-4.987-15.338-14.884-15.338c-8.991,0-15.036,6.347-15.036,15.187v16.698c0,9.142,4.685,15.489,14.884,15.489
		c10.2,0,14.884-6.195,15.036-15.64V375.109z"/>
	<path fill="#FFFFFF" d="M347.178,339.069c0-0.529,0.303-1.133,1.134-1.36l5.817-1.36c0.982-0.302,1.36,0.378,1.36,1.134v14.884
		h15.187c0.68,0,1.133,0.302,1.133,1.133v4.835c0,0.831-0.302,1.209-1.133,1.209h-15.187v36.644c0,6.876,2.04,10.352,8.159,10.352
		c2.871,0,6.347-0.378,8.463-0.982c1.511-0.302,1.964,0.378,2.04,1.209l0.831,4.307c0.151,1.134,0,1.36-1.134,1.813
		c-2.795,1.133-8.16,1.511-11.484,1.511c-11.862,0-15.187-7.026-15.187-16.546V339.069z"/>
	<path fill="#FFFFFF" d="M404.298,414.322c-14.885,0-23.498-8.387-23.498-22.667v-16.698c0-13.525,8.538-22.516,23.347-22.516
		c14.658,0,23.347,8.462,23.347,22.516v16.546C427.493,406.011,418.653,414.322,404.298,414.322 M419.258,375.109
		c0-8.84-4.986-15.338-14.885-15.338c-8.991,0-15.035,6.347-15.035,15.187v16.698c0,9.142,4.685,15.489,14.885,15.489
		c10.199,0,14.884-6.195,15.035-15.64V375.109z"/>
	<path fill="#FFFFFF" d="M477.587,340.58c-3.022,0-5.516-2.342-5.516-5.667c0-3.022,2.493-5.364,5.516-5.364
		c3.173,0,5.666,2.342,5.666,5.364C483.253,337.936,480.685,340.58,477.587,340.58 M473.204,353.424
		c0-0.831,0.378-1.133,1.134-1.133h6.195c0.831,0,1.209,0.378,1.209,1.133v59.084c0,0.68-0.302,0.982-1.133,0.982h-6.196
		c-0.68,0-1.209-0.303-1.209-0.982V353.424z"/>
	<path fill="#FFFFFF" d="M126.253,352.291h-10.805c-0.529,0-0.907,0.378-0.907,0.907v5.516c0,0.529,0.378,0.907,0.907,0.907h9.974
		c10.351,0,13.675,5.364,13.675,12.844v5.969l-0.529,0.302c-3.324-3.702-9.142-5.817-14.053-5.817
		c-14.053,0-21.685,9.293-21.685,20.853c0,12.165,7.329,20.551,20.551,20.551c6.044,0,12.165-1.965,15.715-6.8l0.68,0.151v4.835
		c0,0.378,0.151,0.982,0.982,0.982h5.667c0.68,0,1.133-0.453,1.133-1.209v-38.685C147.484,360.3,141.969,352.291,126.253,352.291
		 M124.591,407.296c-9.671,0-13.978-6.045-13.978-13.827c0-7.631,5.213-13.827,14.053-13.827c8.991,0,13.827,6.196,13.827,13.676
		C138.493,401.024,132.827,407.296,124.591,407.296"/>
	<path fill="#FFFFFF" d="M316.729,352.291h-10.804c-0.529,0-0.907,0.378-0.907,0.907v5.516c0,0.529,0.378,0.907,0.907,0.907h9.973
		c10.352,0,13.676,5.364,13.676,12.844v5.969l-0.528,0.302c-3.325-3.702-9.143-5.817-14.054-5.817
		c-14.053,0-21.685,9.293-21.685,20.853c0,12.165,7.329,20.551,20.551,20.551c6.045,0,12.165-1.965,15.716-6.8l0.68,0.151v4.835
		c0,0.378,0.151,0.982,0.982,0.982h5.667c0.68,0,1.133-0.453,1.133-1.209v-38.685C337.96,360.3,332.444,352.291,316.729,352.291
		 M315.066,407.296c-9.671,0-13.978-6.045-13.978-13.827c0-7.631,5.213-13.827,14.054-13.827c8.991,0,13.826,6.196,13.826,13.676
		C329.045,401.024,323.378,407.296,315.066,407.296"/>
	<path fill="#FFFFFF" d="M514.533,352.291h-10.805c-0.528,0-0.906,0.378-0.906,0.907v5.516c0,0.529,0.378,0.907,0.906,0.907h9.974
		c10.352,0,13.676,5.364,13.676,12.844v5.969l-0.529,0.302c-3.324-3.702-9.142-5.817-14.053-5.817
		c-14.054,0-21.685,9.293-21.685,20.853c0,12.165,7.329,20.551,20.551,20.551c6.045,0,12.164-1.965,15.716-6.8l0.68,0.151v4.835
		c0,0.378,0.151,0.982,0.982,0.982h5.667c0.68,0,1.133-0.453,1.133-1.209v-38.685C535.765,360.3,530.249,352.291,514.533,352.291
		 M512.871,407.296c-9.671,0-13.978-6.045-13.978-13.827c0-7.631,5.213-13.827,14.053-13.827c8.991,0,13.827,6.196,13.827,13.676
		C526.773,401.024,521.106,407.296,512.871,407.296"/>
	<path fill="#FFFFFF" d="M291.267,359.695c-9.973,0-14.355,8.765-14.355,18.134v34.528c0,0.831-0.302,1.134-1.133,1.134h-6.196
		c-0.68,0-1.208-0.303-1.208-0.982v-58.178c0-0.831,0.377-1.133,1.133-1.133h5.364c0.831,0,1.133,0.454,1.133,1.133v7.631h0.378
		c3.324-5.365,9.822-9.671,16.698-9.671h1.964c0.529,0,0.907,0.378,0.907,0.907v5.591c0,0.529-0.378,0.906-0.907,0.906H291.267z"/>
	<path fill="#FFFFFF" d="M459.529,359.695c-9.974,0-14.355,8.765-14.355,18.134v34.528c0,0.831-0.303,1.134-1.134,1.134h-6.195
		c-0.681,0-1.209-0.303-1.209-0.982v-58.178c0-0.831,0.378-1.133,1.133-1.133h5.365c0.831,0,1.133,0.454,1.133,1.133v7.631h0.378
		c3.324-5.365,9.822-9.671,16.697-9.671h1.965c0.529,0,0.906,0.378,0.906,0.907v5.591c0,0.529-0.377,0.906-0.906,0.906H459.529z"/>
</g>
<g>
	<path fill="#FFFFFF" d="M125.044,439.709c4.533,0,6.8,2.645,6.8,2.645l-1.284,1.889c0,0-2.04-2.267-5.44-2.267
		c-4.08,0-7.253,3.022-7.253,7.479c0,4.383,3.249,7.48,7.329,7.48c3.778,0,5.969-2.645,5.969-2.645l1.133,1.965
		c0,0-2.493,2.946-7.253,2.946c-5.516,0-9.747-3.929-9.747-9.747C115.222,443.789,119.529,439.709,125.044,439.709z"/>
	<path fill="#FFFFFF" d="M145.293,439.709c5.44,0,9.822,4.155,9.822,9.671c0,5.591-4.382,9.822-9.822,9.822
		s-9.822-4.231-9.822-9.822C135.471,443.864,139.854,439.709,145.293,439.709z M145.293,456.936c4.004,0,7.253-3.249,7.253-7.556
		c0-4.231-3.249-7.329-7.253-7.329s-7.253,3.174-7.253,7.329C138.04,453.687,141.289,456.936,145.293,456.936z M146.653,432.758
		h2.947l-3.173,4.382h-2.267L146.653,432.758z"/>
	<path fill="#FFFFFF" d="M166.978,439.709c4.534,0,6.045,3.476,6.045,3.476h0.075c0,0-0.075-0.604-0.075-1.436v-9.066h2.493v25.991
		h-2.418v-1.965c0-0.831,0.076-1.36,0.076-1.36h-0.076c0,0-1.511,3.702-6.422,3.702c-4.987,0-8.084-4.004-8.084-9.746
		S162.067,439.709,166.978,439.709z M167.053,456.936c3.098,0,6.044-2.191,6.044-7.48c0-3.777-1.889-7.479-5.893-7.479
		c-3.325,0-5.969,2.796-5.969,7.479C161.235,454.064,163.578,456.936,167.053,456.936z"/>
	<path fill="#FFFFFF" d="M181.56,432.758h2.645v3.173h-2.645V432.758z M181.636,440.162h2.493v18.587h-2.493V440.162z"/>
	<path fill="#FFFFFF" d="M196.596,464.265c3.626,0,6.498-1.738,6.498-5.818v-1.737c0-0.68,0.076-1.36,0.076-1.36h-0.076
		c-1.133,2.04-3.022,3.249-5.893,3.249c-4.987,0-8.312-3.929-8.312-9.52c0-5.592,3.098-9.369,8.084-9.369
		c4.911,0,6.12,3.098,6.12,3.098h0.076c0,0,0-0.227,0-0.604v-2.04h2.418v18.134c0,5.893-4.382,8.235-8.916,8.235
		c-2.116,0-4.307-0.529-6.12-1.512l0.982-2.039C191.609,462.98,193.875,464.265,196.596,464.265z M203.169,449.153
		c0-5.44-2.569-7.103-5.894-7.103c-3.626,0-5.742,2.645-5.742,7.027c0,4.382,2.418,7.328,6.12,7.328
		C200.6,456.406,203.169,454.594,203.169,449.153z"/>
	<path fill="#FFFFFF" d="M220.169,439.709c5.44,0,9.822,4.155,9.822,9.671c0,5.591-4.382,9.822-9.822,9.822
		s-9.822-4.231-9.822-9.822C210.347,443.864,214.729,439.709,220.169,439.709z M220.169,456.936c4.004,0,7.253-3.249,7.253-7.556
		c0-4.231-3.249-7.329-7.253-7.329s-7.253,3.174-7.253,7.329C212.916,453.687,216.165,456.936,220.169,456.936z"/>
	<path fill="#FFFFFF" d="M251.751,439.709c4.534,0,6.12,3.551,6.12,3.551h0.076c0,0,0-0.604,0-1.436v-1.737h2.417v25.991h-2.493
		v-8.916c0-0.982,0.076-1.662,0.076-1.662h-0.076c0,0-1.586,3.627-6.347,3.627c-4.987,0-8.084-4.005-8.084-9.747
		C243.44,443.562,246.916,439.709,251.751,439.709z M251.902,456.936c3.098,0,6.044-2.191,6.044-7.48
		c0-3.777-1.889-7.479-5.894-7.479c-3.324,0-5.969,2.796-5.969,7.479C246.009,454.064,248.427,456.936,251.902,456.936z"/>
	<path fill="#FFFFFF" d="M266.182,440.162h2.494v11.183c0,2.946,0.453,5.516,4.004,5.516c4.231,0,6.875-3.702,6.875-7.782v-8.916
		h2.493v18.587h-2.418v-2.796c0-0.831,0.076-1.511,0.076-1.511h-0.076c-0.755,1.813-3.173,4.685-7.253,4.685
		c-4.382,0-6.196-2.343-6.196-7.178V440.162L266.182,440.162z"/>
	<path fill="#FFFFFF" d="M296.027,439.709c5.138,0,7.782,3.929,7.782,8.613c0,0.453-0.076,1.284-0.076,1.284h-14.28
		c0.076,4.76,3.4,7.329,7.178,7.329c3.4,0,5.667-2.267,5.667-2.267l1.133,1.889c0,0-2.72,2.569-6.875,2.569
		c-5.516,0-9.747-4.005-9.747-9.747C286.884,443.411,291.04,439.709,296.027,439.709z M301.24,447.566
		c-0.151-3.854-2.494-5.666-5.289-5.666c-3.098,0-5.818,1.964-6.422,5.666H301.24z"/>
	<path fill="#FFFFFF" d="M319.223,442.505h-2.418v-2.116h2.493v-5.364h2.493v5.364h4.685v2.116h-4.685v9.218
		c0,4.382,2.796,4.911,4.155,4.911c0.529,0,0.831-0.076,0.831-0.076v2.267c0,0-0.377,0.076-1.058,0.076
		c-2.115,0-6.497-0.681-6.497-6.951V442.505L319.223,442.505z"/>
	<path fill="#FFFFFF" d="M330.934,440.162h2.493v3.324c0,0.831-0.075,1.512-0.075,1.512h0.075c0.906-2.796,2.946-4.987,5.894-4.987
		c0.528,0,0.981,0.076,0.981,0.076v2.493c0,0-0.453-0.075-0.906-0.075c-2.645,0-4.608,2.04-5.364,4.835
		c-0.378,1.209-0.529,2.418-0.529,3.627v7.857h-2.568V440.162z"/>
	<path fill="#FFFFFF" d="M353.978,447.265h1.058v-0.453c0-3.552-1.964-4.836-4.608-4.836c-3.098,0-5.214,1.737-5.214,1.737
		l-1.208-1.889c0,0,2.417-2.115,6.648-2.115c4.458,0,6.951,2.493,6.951,7.103v11.938h-2.493v-2.04c0-0.906,0.075-1.587,0.075-1.587
		h-0.075c0,0-1.587,4.005-6.195,4.005c-3.099,0-6.347-1.813-6.347-5.516C342.569,447.416,350.729,447.265,353.978,447.265z
		 M349.293,457.087c3.552,0,5.667-3.702,5.667-6.951v-0.831h-1.058c-2.947,0-8.765,0.075-8.765,4.23
		C345.138,455.273,346.573,457.087,349.293,457.087z"/>
	<path fill="#FFFFFF" d="M363.347,440.162h2.493v2.796c0,0.831-0.075,1.511-0.075,1.511h0.075c0.68-1.737,3.022-4.685,7.404-4.685
		c4.609,0,6.196,2.645,6.196,7.178v11.862h-2.494v-11.182c0-2.947-0.453-5.516-4.004-5.516c-3.174,0-5.894,2.19-6.8,5.213
		c-0.227,0.756-0.303,1.662-0.303,2.493v8.916h-2.493V440.162z"/>
	<path fill="#FFFFFF" d="M385.106,454.669c0,0,2.04,2.267,5.516,2.267c1.965,0,3.702-0.982,3.702-2.946
		c0-4.08-10.049-3.099-10.049-9.143c0-3.324,3.022-5.138,6.347-5.138c3.929,0,5.742,2.04,5.742,2.04l-1.133,1.889
		c0,0-1.587-1.737-4.685-1.737c-1.889,0-3.702,0.831-3.702,2.871c0,4.08,10.049,3.021,10.049,9.142c0,3.022-2.645,5.214-6.347,5.214
		c-4.533,0-6.876-2.721-6.876-2.721L385.106,454.669z"/>
	<path fill="#FFFFFF" d="M402.484,442.505h-2.342v-2.116h2.342v-0.906c0-6.12,4.307-6.951,6.422-6.951
		c0.681,0,1.134,0.075,1.134,0.075v2.267c0,0-0.378-0.075-0.906-0.075c-1.437,0-4.156,0.528-4.156,4.685v0.906h4.76v2.116h-4.76
		v16.244h-2.493V442.505z"/>
	<path fill="#FFFFFF" d="M421.751,439.709c5.44,0,9.822,4.155,9.822,9.671c0,5.591-4.382,9.822-9.822,9.822
		c-5.439,0-9.822-4.231-9.822-9.822C411.929,443.864,416.312,439.709,421.751,439.709z M421.751,456.936
		c4.005,0,7.254-3.249,7.254-7.556c0-4.231-3.249-7.329-7.254-7.329c-4.004,0-7.253,3.174-7.253,7.329
		C414.498,453.687,417.747,456.936,421.751,456.936z"/>
	<path fill="#FFFFFF" d="M436.333,440.162h2.493v3.324c0,0.831-0.075,1.512-0.075,1.512h0.075c0.907-2.796,2.947-4.987,5.894-4.987
		c0.529,0,0.982,0.076,0.982,0.076v2.493c0,0-0.453-0.075-0.906-0.075c-2.645,0-4.609,2.04-5.365,4.835
		c-0.377,1.209-0.528,2.418-0.528,3.627v7.857h-2.493v-18.662H436.333z"/>
	<path fill="#FFFFFF" d="M449.48,440.162h2.493v2.796c0,0.831-0.076,1.511-0.076,1.511h0.076c0.906-2.493,3.853-4.685,6.725-4.685
		c3.476,0,5.213,1.587,5.742,4.685h0.075c0.982-2.493,3.702-4.685,6.875-4.685c4.534,0,6.196,2.645,6.196,7.178v11.862h-2.493
		v-11.182c0-3.022-0.604-5.516-4.005-5.516c-2.871,0-5.213,2.493-5.894,5.213c-0.227,0.831-0.302,1.738-0.302,2.72v8.765H462.4
		v-11.182c0-2.796-0.378-5.516-3.93-5.516c-3.021,0-5.288,2.645-6.119,5.439c-0.151,0.756-0.228,1.662-0.228,2.493v8.765h-2.493
		v-18.662H449.48z"/>
	<path fill="#FFFFFF" d="M493.227,447.265h1.058v-0.453c0-3.552-1.964-4.836-4.608-4.836c-3.098,0-5.214,1.737-5.214,1.737
		l-1.209-1.889c0,0,2.418-2.115,6.649-2.115c4.458,0,6.951,2.493,6.951,7.103v11.938h-2.418v-2.04c0-0.906,0.075-1.587,0.075-1.587
		h-0.075c0,0-1.587,4.005-6.195,4.005c-3.098,0-6.347-1.813-6.347-5.516C481.817,447.416,489.978,447.265,493.227,447.265z
		 M488.542,457.087c3.552,0,5.667-3.702,5.667-6.951v-0.831h-1.058c-2.947,0-8.765,0.075-8.765,4.23
		C484.387,455.273,485.747,457.087,488.542,457.087z"/>
</g>
</svg>
